<svg viewBox="0 0 256 256" xmlns="http://www.w3.org/2000/svg" role="img" aria-label="Demon">
  <defs>
    <linearGradient id="g-head" x1="0" x2="1" y1="0" y2="1">
      <stop offset="0%" stop-color="#8b0a0a" />
      <stop offset="100%" stop-color="#3b0a0a" />
    </linearGradient>
    <linearGradient id="g-body" x1="0" x2="0" y1="0" y2="1">
      <stop offset="0%" stop-color="#a31616" />
      <stop offset="100%" stop-color="#4a0e0e" />
    </linearGradient>
    <radialGradient id="g-eye" cx="50%" cy="50%" r="50%">
      <stop offset="0%" stop-color="#fff3" />
      <stop offset="60%" stop-color="#ff3b3b" />
      <stop offset="100%" stop-color="#7a0d0d" />
    </radialGradient>
    <filter id="shadow" x="-50%" y="-50%" width="200%" height="200%">
      <feDropShadow dx="0" dy="6" stdDeviation="8" flood-color="#000" flood-opacity="0.5" />
    </filter>
  </defs>

  <g filter="url(#shadow)">
    <path d="M40 48 L86 8 L96 68 Z" fill="#2b0000"/>
    <path d="M216 48 L170 8 L160 68 Z" fill="#2b0000"/>

    <ellipse cx="128" cy="112" rx="94" ry="76" fill="url(#g-head)" stroke="#1a0000" stroke-width="3"/>

    <path d="M48 150 Q128 190 208 150 Q188 220 128 228 Q68 220 48 150 Z" fill="url(#g-body)" stroke="#1a0000" stroke-width="3"/>

    <ellipse cx="98" cy="110" rx="18" ry="16" fill="url(#g-eye)"/>
    <ellipse cx="158" cy="110" rx="18" ry="16" fill="url(#g-eye)"/>
    <circle cx="100" cy="110" r="5" fill="#000"/>
    <circle cx="156" cy="110" r="5" fill="#000"/>

    <path d="M88 140 Q128 162 168 140" fill="none" stroke="#000" stroke-width="6" stroke-linecap="round"/>

    <g opacity="0.35">
      <circle cx="128" cy="200" r="40" fill="#000"/>
    </g>
  </g>
</svg>